# xmcd CD database file
#
# Track frame offsets:
#	183
#	14370
#	36590
#	51178
#	64225
#	77690
#	89155
#	102053
#	114570
#	130960
#	142570
#	156768
#	166923
#
# Disc length: 2385 seconds
#
# Revision: 0
# Processed by: cddbd v1.5.1PL0 Copyright (c) Steve Scherf et al.
# Submitted via: CDex 1.51
#
DISCID=a9094f0d
DTITLE=Jiri Suchy - Suchy zpiva Jezka
DYEAR=1992
DGENRE=Jazz
TTITLE0=Tri straznici
TTITLE1=Civilizace
TTITLE2=Ezop a brabenec
TTITLE3=Kat a blazen
TTITLE4=Proc nemohu spat
TTITLE5=Bugatti step
TTITLE6=V dome strasi duch
TTITLE7=Kolumbovo vejce
TTITLE8=Strejcek hlad
TTITLE9=Prababa me prababy
TTITLE10=Vy nevite, co je stredovek
TTITLE11=Lodnicka
TTITLE12=Nebe na zemi
EXTD=YEAR: 1992
EXTT0=
EXTT1=
EXTT2=
EXTT3=
EXTT4=
EXTT5=
EXTT6=
EXTT7=
EXTT8=
EXTT9=
EXTT10=
EXTT11=
EXTT12=
PLAYORDER=
